<svg xmlns="http://www.w3.org/2000/svg" viewBox="0 0 2048 877" width="2048" height="877" shape-rendering="geometricPrecision">
<!-- 白色底层：通过红色 evenodd 的镂空区域露出白色 -->
<path fill="#ffffff" d="M 22 147 L 22 173 L 25 188 L 29 200 L 44 226 L 62 244 L 83 257 L 108 265 L 127 267 L 368 267 L 393 263 L 414 255 L 427 247 L 442 234 L 457 214 L 463 202 L 468 188 L 471 172 L 471 147 L 467 128 L 459 109 L 445 89 L 435 79 L 418 67 L 406 61 L 391 56 L 374 53 L 119 53 L 98 57 L 73 68 L 58 79 L 47 90 L 40 99 L 30 117 Z"/>
<path fill="#ff0029" fill-rule="evenodd" d="M 348 132 L 348 150 L 360 150 L 359 132 Z M 22 147 L 22 173 L 25 188 L 29 200 L 44 226 L 62 244 L 83 257 L 108 265 L 127 267 L 368 267 L 393 263 L 414 255 L 427 247 L 442 234 L 457 214 L 463 202 L 468 188 L 471 172 L 471 147 L 467 128 L 459 109 L 445 89 L 435 79 L 418 67 L 406 61 L 391 56 L 374 53 L 119 53 L 98 57 L 73 68 L 58 79 L 47 90 L 40 99 L 30 117 Z M 188 215 L 199 193 L 204 195 L 232 196 L 226 212 L 222 218 L 195 218 L 190 217 Z M 163 130 L 182 130 L 185 134 L 186 161 L 189 184 L 179 206 L 177 207 L 171 199 L 165 181 L 161 132 Z M 112 131 L 108 185 L 103 199 L 100 204 L 96 207 L 85 184 L 89 134 L 91 130 Z M 402 110 L 408 117 L 407 126 L 399 132 L 387 132 L 385 130 L 385 119 L 388 113 L 394 109 Z M 250 109 L 299 110 L 298 132 L 285 132 L 285 195 L 306 196 L 305 218 L 234 217 L 234 214 L 242 196 L 262 195 L 262 132 L 250 132 L 248 130 L 248 111 Z M 312 109 L 325 109 L 326 102 L 348 103 L 348 109 L 365 109 L 374 113 L 380 119 L 383 126 L 383 150 L 393 151 L 400 155 L 404 159 L 408 167 L 408 202 L 405 209 L 400 214 L 391 218 L 369 217 L 361 200 L 362 197 L 385 196 L 385 176 L 382 173 L 348 173 L 348 216 L 346 218 L 325 217 L 324 173 L 304 172 L 305 150 L 325 150 L 325 132 L 311 131 Z M 213 102 L 235 104 L 224 127 L 224 130 L 241 130 L 243 133 L 229 163 L 229 166 L 241 166 L 243 169 L 234 187 L 204 187 L 200 183 L 200 178 L 212 152 L 198 151 L 194 147 L 194 142 Z M 147 102 L 149 104 L 149 199 L 146 208 L 139 215 L 132 218 L 120 218 L 110 198 L 125 196 L 126 102 Z"/>
<path fill="#d0d0d0" fill-rule="evenodd" d="M 1219 777 L 1213 783 L 1208 792 L 1204 811 L 1204 831 L 1206 843 L 1209 852 L 1216 862 L 1224 867 L 1231 869 L 1282 869 L 1290 867 L 1295 864 L 1301 858 L 1305 851 L 1309 835 L 1310 820 L 1308 800 L 1305 791 L 1298 780 L 1286 773 L 1228 773 Z M 1230 802 L 1237 796 L 1279 797 L 1283 801 L 1287 813 L 1287 828 L 1283 840 L 1279 844 L 1274 846 L 1239 846 L 1233 843 L 1227 831 L 1227 810 Z M 1168 773 L 1168 869 L 1191 869 L 1191 773 Z M 1090 773 L 1090 869 L 1113 869 L 1114 831 L 1165 831 L 1159 812 L 1113 811 L 1113 773 Z M 984 773 L 991 793 L 1021 795 L 1021 869 L 1044 869 L 1045 794 L 1081 794 L 1074 773 Z M 917 773 L 881 869 L 907 868 L 910 858 L 917 844 L 951 844 L 945 825 L 923 824 L 932 796 L 935 792 L 947 793 L 974 869 L 1000 869 L 964 773 Z M 853 773 L 845 806 L 840 811 L 800 812 L 807 831 L 840 831 L 847 836 L 854 869 L 876 869 L 868 831 L 866 827 L 859 822 L 859 819 L 863 817 L 868 807 L 875 773 Z M 776 773 L 776 869 L 798 868 L 798 773 Z M 673 777 L 666 784 L 662 791 L 658 808 L 659 839 L 662 850 L 667 859 L 674 865 L 685 869 L 739 869 L 749 865 L 754 861 L 761 848 L 763 831 L 741 831 L 740 837 L 737 842 L 730 846 L 693 846 L 688 844 L 683 838 L 680 826 L 680 815 L 684 802 L 687 798 L 691 796 L 732 796 L 738 801 L 741 810 L 763 811 L 761 794 L 755 782 L 747 775 L 741 773 L 681 773 Z M 573 774 L 538 869 L 563 869 L 571 848 L 574 844 L 608 844 L 602 825 L 580 824 L 590 793 L 602 792 L 606 798 L 630 868 L 657 869 L 621 774 Z M 264 773 L 265 869 L 329 869 L 348 862 L 354 856 L 362 840 L 364 817 L 361 797 L 355 786 L 349 780 L 343 776 L 333 773 Z M 289 793 L 327 793 L 333 795 L 338 800 L 341 809 L 341 831 L 340 836 L 334 845 L 328 848 L 289 848 L 287 846 L 287 795 Z M 154 773 L 154 868 L 249 868 L 241 847 L 178 845 L 179 829 L 245 829 L 239 811 L 178 810 L 179 794 L 248 794 L 240 773 Z M 34 773 L 34 869 L 56 868 L 57 794 L 105 794 L 109 796 L 112 800 L 113 808 L 111 813 L 106 818 L 59 818 L 66 840 L 106 840 L 112 846 L 117 869 L 139 869 L 132 839 L 127 833 L 122 830 L 130 822 L 134 811 L 133 790 L 130 783 L 125 777 L 116 773 Z M 1322 773 L 1322 869 L 1344 869 L 1345 792 L 1350 792 L 1352 794 L 1376 869 L 1423 869 L 1423 772 L 1402 772 L 1401 849 L 1395 849 L 1393 847 L 1369 772 Z M 508 772 L 509 869 L 531 868 L 530 772 Z M 429 773 L 430 869 L 452 869 L 453 831 L 505 831 L 498 812 L 454 812 L 452 810 L 452 772 Z M 1085 690 L 1085 696 L 1154 696 L 1226 662 L 1243 656 L 1329 696 L 1398 696 L 1397 690 L 1265 629 L 1218 629 Z M 1093 629 L 1093 666 L 1108 666 L 1141 647 L 1143 619 L 1341 620 L 1342 647 L 1375 666 L 1390 666 L 1390 629 L 1328 586 L 1155 586 Z M 261 696 L 316 696 L 344 656 L 390 655 L 418 695 L 469 696 L 442 657 L 391 655 L 391 576 L 344 576 L 343 656 L 290 656 Z M 181 557 L 130 557 L 96 611 L 147 612 Z M 729 542 L 717 569 L 717 572 L 820 573 L 819 590 L 729 590 L 717 620 L 818 620 L 820 622 L 819 640 L 711 640 L 699 672 L 818 672 L 820 674 L 820 696 L 861 695 L 862 672 L 980 672 L 967 640 L 861 639 L 862 620 L 962 620 L 950 591 L 861 589 L 862 572 L 962 571 L 950 542 L 861 541 L 860 527 L 820 527 L 820 540 L 818 542 Z M 265 466 L 266 495 L 347 496 L 339 509 L 297 510 L 265 537 L 265 619 L 289 643 L 307 642 L 308 549 L 427 550 L 427 643 L 442 643 L 470 619 L 470 536 L 443 510 L 391 508 L 398 496 L 473 495 L 473 466 Z M 26 467 L 27 495 L 108 497 L 99 510 L 69 510 L 37 537 L 36 627 L 19 627 L 19 657 L 72 657 L 74 659 L 29 696 L 88 696 L 132 657 L 140 657 L 184 696 L 243 696 L 202 663 L 199 657 L 259 657 L 258 627 L 240 626 L 240 537 L 212 510 L 152 509 L 160 496 L 251 495 L 251 466 L 179 465 L 185 455 L 133 455 L 126 466 Z M 76 551 L 95 535 L 184 535 L 202 553 L 201 627 L 76 626 Z M 1009 630 L 1057 630 L 1147 569 L 1336 569 L 1425 630 L 1474 630 L 1473 619 L 1396 570 L 1466 569 L 1432 542 L 1319 541 L 1320 527 L 1431 527 L 1427 522 L 1401 500 L 1319 499 L 1320 483 L 1403 483 L 1375 459 L 1319 458 L 1319 448 L 1272 448 L 1272 457 L 1270 459 L 1204 458 L 1204 448 L 1157 448 L 1156 459 L 1106 460 L 1080 483 L 1157 484 L 1156 500 L 1082 500 L 1057 521 L 1052 527 L 1157 528 L 1156 542 L 1051 542 L 1017 569 L 1086 570 L 1010 619 Z M 1205 527 L 1272 528 L 1272 540 L 1270 542 L 1204 541 Z M 1205 483 L 1270 483 L 1272 485 L 1272 498 L 1270 500 L 1204 499 Z M 1272 427 L 1272 437 L 1413 438 L 1413 462 L 1441 486 L 1468 486 L 1468 437 L 1432 407 L 1296 407 Z M 582 404 L 580 648 L 559 627 L 558 442 L 519 442 L 519 641 L 551 673 L 563 683 L 642 683 L 645 682 L 686 642 L 686 442 L 647 442 L 647 627 L 625 648 L 623 404 Z M 1475 870 L 1699 870 L 1798 712 L 1865 815 L 1864 819 L 1832 870 L 2045 870 L 1751 400 L 1675 522 L 1730 607 L 1629 769 L 1625 770 L 1581 700 Z M 1280 385 L 1218 385 L 1192 407 L 1053 407 L 1017 437 L 1017 486 L 1044 486 L 1072 462 L 1073 437 L 1230 437 L 1280 397 Z M 698 444 L 699 468 L 725 468 L 756 442 L 810 486 L 722 487 L 699 504 L 699 518 L 822 518 L 839 504 L 841 504 L 858 518 L 976 518 L 976 504 L 953 487 L 870 486 L 932 436 L 969 435 L 968 407 L 831 407 L 800 432 L 769 431 L 810 395 L 810 385 L 766 385 Z M 805 436 L 875 436 L 841 464 L 835 461 Z M 39 417 L 39 443 L 465 443 L 465 416 L 438 393 L 401 393 L 400 417 L 282 416 L 282 385 L 222 385 L 221 417 L 103 416 L 103 393 L 67 393 Z M 890 283 L 891 294 L 917 325 L 980 325 L 980 316 L 954 284 Z M 772 283 L 772 292 L 799 325 L 862 325 L 862 316 L 835 283 Z M 655 284 L 656 293 L 682 325 L 746 325 L 745 315 L 718 283 Z M 529 325 L 594 324 L 619 293 L 619 283 L 557 283 L 530 315 Z M 1072 253 L 1072 302 L 1100 325 L 1387 325 L 1416 301 L 1415 253 L 1386 229 L 1101 229 Z M 1124 262 L 1126 260 L 1364 262 L 1364 292 L 1362 294 L 1124 293 Z M 1678 297 L 1678 300 L 1692 325 L 1876 325 L 1849 289 L 1745 288 L 1797 216 L 1795 210 L 1769 177 L 1765 174 Z M 1788 141 L 1779 154 L 1779 158 L 1909 325 L 1942 325 L 1942 289 L 1827 140 Z M 1018 212 L 1204 212 L 1227 193 L 1260 193 L 1282 212 L 1469 212 L 1468 200 L 1443 179 L 1310 178 L 1367 130 L 1396 130 L 1396 115 L 1373 95 L 1203 95 L 1170 124 L 1143 123 L 1177 94 L 1177 87 L 1120 87 L 1052 144 L 1051 157 L 1102 157 L 1129 134 L 1188 178 L 1045 179 L 1019 200 Z M 1187 129 L 1299 130 L 1244 176 Z M 886 69 L 834 69 L 802 103 L 802 112 L 853 112 L 886 78 Z M 627 69 L 627 78 L 660 112 L 711 112 L 711 103 L 679 69 Z M 1273 56 L 1273 68 L 1414 69 L 1414 90 L 1429 104 L 1443 115 L 1469 115 L 1469 65 L 1434 36 L 1296 36 Z M 552 52 L 552 129 L 583 155 L 731 156 L 730 179 L 573 178 L 556 208 L 731 209 L 730 235 L 541 235 L 527 263 L 985 263 L 971 235 L 782 235 L 780 233 L 781 208 L 956 207 L 941 180 L 782 179 L 780 177 L 781 155 L 928 155 L 959 129 L 958 50 L 929 26 L 583 26 Z M 781 55 L 897 55 L 918 68 L 919 111 L 897 126 L 782 126 L 780 124 Z M 594 73 L 615 55 L 731 56 L 730 126 L 614 126 L 594 110 Z M 1670 146 L 1670 162 L 1715 161 L 1788 63 L 1792 59 L 1818 58 L 1828 59 L 1906 162 L 1950 162 L 1950 146 L 1854 20 L 1766 20 Z M 1626 14 L 1581 15 L 1580 73 L 1525 73 L 1504 101 L 1505 114 L 1581 115 L 1580 172 L 1548 173 L 1489 302 L 1490 325 L 1527 324 L 1580 202 L 1582 325 L 1626 325 L 1627 204 L 1668 281 L 1671 279 L 1697 242 L 1657 171 L 1626 169 L 1627 114 L 1674 113 L 1693 88 L 1694 73 L 1626 72 Z M 1281 14 L 1219 14 L 1192 36 L 1053 36 L 1018 65 L 1018 115 L 1044 115 L 1073 91 L 1074 68 L 1231 68 L 1281 25 Z"/>
</svg>
